<svg xmlns="http://www.w3.org/2000/svg" width="1200" height="700" viewBox="0 0 1200 700" role="img" aria-label="Market stalls and palm trees">
  <rect width="1200" height="700" fill="#fff5ef"/>
  <rect y="420" width="1200" height="280" fill="#ffe4d6"/>
  <circle cx="160" cy="160" r="110" fill="#f4b400"/>
  <g fill="#002868">
    <rect x="140" y="260" width="40" height="160" rx="18"/>
    <rect x="130" y="270" width="160" height="40" rx="20"/>
  </g>
  <g fill="#bf0a30">
    <rect x="380" y="350" width="260" height="180" rx="20"/>
    <rect x="400" y="310" width="220" height="60" rx="18"/>
    <rect x="450" y="420" width="120" height="60" rx="14" fill="#ffffff"/>
  </g>
  <g fill="#002868">
    <rect x="720" y="340" width="260" height="190" rx="18"/>
    <rect x="740" y="300" width="220" height="60" rx="18"/>
    <rect x="780" y="420" width="140" height="70" rx="14" fill="#ffffff"/>
  </g>
  <g fill="#bf0a30">
    <rect x="980" y="390" width="140" height="140" rx="16"/>
    <rect x="1000" y="360" width="100" height="40" rx="12"/>
  </g>
  <path d="M160 240c80 0 160 40 200 120H-10c40-80 100-120 170-120z" fill="#ffffff" opacity="0.65"/>
</svg>
